<?xml version="1.0" encoding="UTF-8"?>
<svg viewBox="0 0 340.84869 600.00006" xmlns="http://www.w3.org/2000/svg">
 <g transform="matrix(1.3097 0 0 1.3097 -911.66 -695.96)">
  <path d="m831.16 531.41a0.40004 0.40004 0 0 0 -0.0625 0.0312 0.40004 0.40004 0 0 0 -0.125 0.6875c22.465 20.352 22.718 34.872 24.469 50-1.1522 0.3799-2.2237 1.028-3.2812 1.7188-4.096-17.266-9.2158-27.047-14.938-32.688-5.9042-5.8201-12.454-7.2018-18.969-7.9375a0.40004 0.40004 0 0 0 -0.15625 0 0.40004 0.40004 0 0 0 -0.0312 0 0.40004 0.40004 0 0 0 0.0937 0.78125c6.4642 0.72992 12.76 2.0605 18.5 7.7188 5.5946 5.5149 10.692 15.223 14.781 32.594-1.8166 1.2241-3.6294 2.4978-5.7188 2.875-3.7654 0.67971-7.8072 0.14628-11.438-1.0625-6.4895-2.1608-15.492-9.9245-17.5-10.719-0.58159-0.23003-1.086-0.36004-1.5-0.375-0.13798-5e-3 -0.25348 0.0139-0.375 0.0312-2.1063 0.30303-1.7743 3.6795-1.3438 5.9688 1.8468 9.8185 5.4774 15.177 13.219 20.438 0.12353 2.3864 0.1752 4.373 0.1875 6.1875-7.9838-0.45801-15.91-1.6446-24-1.7188-1.2248-0.0112-2.4548 0.0159-3.6875 0.0625-9.8616 0.37294-19.991 2.8137-30.719 10.656a0.40323 0.40323 0 0 0 0.46875 0.65625c10.598-7.748 20.531-10.163 30.281-10.531 9.2814-0.351 18.394 1.1587 27.656 1.6875-2e-3 0.50833 0.0121 1.1026 0 1.5625 0 0-1.2541 1.4918-2.5625 3.4688-0.66547-0.01-1.3415-9e-3 -2 0-20.989 0.2824-37.553 8.5742-52.812 19.062a0.40004 0.40004 0 1 0 0.4375 0.65625c15.57-10.702 32.387-19.051 53.906-18.938-1.2555 2.0024-2.4519 4.3253-2.5312 6.125-0.0884 2.0057 0.43045 3.6825 1.1562 5.0312-13.299 2.3867-22.548 5.5569-29.125 9.2812-7.0288 3.9804-11.069 8.564-13.875 13.375a0.40004 0.40004 0 1 0 0.6875 0.40635c2.75-4.7154 6.6489-9.1786 13.562-13.094 6.5168-3.6905 15.786-6.8679 29.188-9.25 1.6476 2.521 3.9688 3.7188 3.9688 3.7188l-1.25 9.8125s-7.0739 6.599-9.4688 10.719c-3.3449 5.7543-2.971 20.667-6.0938 20.875l-5.3438 0.375c-2.1291 0.14194-3.6211-4.1398-5.7188-4.6562-3.6329-0.89438-14.916 2.3268-23.938-6.4375l-1.4062 6.8125-15 7.5c-5.3399 1.0777-9.1096-1.31-10.531-0.90625 0.50653 3.9948 2.4119 6.2166 4.8125 7.8438 0 0-7.8397 12.514-14.281 15-2.2828 0.88116-7.3438-0.53125-7.3438-0.53125 0.47958 3.3917 1.048 6.7553 5.7188 8.75 0 0-5.5828 9.6613-8.9062 14.125-2.167 2.9104-7.1562 8.2188-7.1562 8.2188 1.136 2.0622 3.0236 3.1603 6.0625 2.8438-4.5922 18.273-9.072 32.458-9.4688 55.344-0.0878 5.0643-9.5439 18.335-13.562 26.625l6.7812 1.0625c1.0447 2.2993 0.32634 4.2591-0.25 7.9688-0.34364 2.2119 0.13052 2.681 2.2188 2.7812 0.76049 0.0365 1.6869 0.22288 1.7812 0.875 0.62953 4.3511 1.9337 11.648-0.34375 17.125-1.1982 2.8817-3.5954 5.5009-6.625 6.25-1.3976 0.34558-4.2812-0.53125-4.2812-0.53125l1.9688 4.0938s-3.1743 0.5932-3.9375 1.8125c-1.2321 1.9684 0.1875 6.9375 0.1875 6.9375-1.4565 2.3054-6.8363 2.8888-5.1875 6.9688l5.7812 0.15625c-0.40793 2.3398-0.92036 5.53-1.125 7.875-0.22776 2.6098-0.3502 5.6892 1.0938 7.875 0.70672 1.0698 2.3125 1.4375 2.3125 1.4375s-2.142 10.525-2.3438 15.875c-0.0967 2.5639 0.46605 5.1226 0.53125 7.6875 0.0801 3.1543 0.0329 6.5853-0.15625 9.4688-0.0701 1.0691 3.2188 0 3.2188 0 0.38499-0.0428-0.5689 11.516 0.53125 15.719 0.45847 1.7513 5.3438 0.875 5.3438 0.875s2.2088 12.013 5.1875 14.469c1.2255 1.0103 4.625-1.0625 4.625-1.0625 4.4044 6.7264 5.4837 15.776 13.219 20.156 2.1206 1.2008 2.7842-1.9212 3.2188-3.375 7.4405 5.5357 16.036 5.2385 22.312 16.594 0 0 1.4146-2.5831 2.6875-3.0312 1.6522-0.58174 4.4732 0.72768 5.1875 0.90625s-0.23696 1.486 1.5938 1.7812c0.26561 0.0428 12.471 2.3816 18.938 2.6875 2.5679 0.12148 4.4234 6.3519 7.8438 5.875 0.92962-0.58349 1.1674-2.2171 0.71875-3.2188-1.7174-3.8347-6.4062-6.5938-6.4062-6.5938s23.104 0.80895 29.625-6.9688c0.68947-0.82228-0.45662-2.3605 0.1875-3.2188 5.5173-7.3515 10.833-12.941 11.969-18.75 0.0186-0.0952 0.0136-0.11744 0.0312-0.15625-0.14424-0.2757-0.43892-1.0781-0.9375-3.0625-0.44416-1.7678 3.4724-11.28 1.9688-16.25-0.39682-1.3116-3.0811-0.9813-3.4062-2.3125-2.1799-8.9234-4.5381-13.094-9.625-17.312-5.0714-4.2052-12.194-6.8992-18.75-6.25-2.8654 0.28373-7.3285 1.407-7.5 4.2812-0.13683 2.2936 3.8278 2.5519 5.5312 4.0938 5.9044 5.3444 15.516 9.7423 16.062 17.688 0.72242 10.509-7.9439 22.464-17.844 26.062-14.524 5.2789-33.561-1.7435-44.656-12.5-13.706-13.288-20.867-35.906-17.125-54.625 2.5972-12.993 9.4685-18.774 15.25-21.344l62.438 1.7188c1.3598-4e-3 2.5213-0.15226 3.7188 0.34375 0.77772 0.32214 0.9918 1.594 1.8125 1.7812 1.2297 0.28062 3.5625-1.25 3.5625-1.25s1.056 0.61684 2.1875 1c0.15387 1.0149 0.13704 2.0529 0.0312 3.0938 0.67252-0.95951 1.1483-1.8822 1.5-2.8125 0.13188-4e-3 0.25913-2e-3 0.375-0.0312 1.47-0.3675 3.2188-3.2188 3.2188-3.2188s2.7758 1.4048 4.2812 1.4375c1.2997 0.0282 3.75-1.0938 3.75-1.0938s0.63435 0.86809 1.375 1.5625c-0.0999 1.3818-0.28186 2.7463-0.90625 4.0625 1.8607-0.7224 2.961-1.8686 3.9062-3.125 1.8123-0.11107 3.8438-0.71875 3.8438-0.71875s0.82086 0.49342 1.8125 0.9375c0.0762 0.93609 0.0968 2.1461-0.0312 4.0625 1.7149-1.1046 2.6587-2.2809 3.3438-3.5 1.7533-0.47794 4-2.0312 4-2.0312s2.1167 1.0536 4 1.4688c0.47246 1.0955 0.77365 2.1858 0.625 3.2812 0.80577-1.0951 1.1773-2.1704 1.375-3.2188 1.3755-0.38667 3.2813-2.0626 3.2813-2.0626s1.1625 1.2044 2.3438 1.875c0.48973 1.3407 0.90481 2.6906 0.875 4.0312 1.539-1.4327 2.0287-2.801 2.4062-4.1562 1.5822-0.736 3.125-1.9375 3.125-1.9375s0.67342 0.52805 1.5625 1.0625c-0.10362 1.4518-0.20888 2.8115-0.3125 4.6562 1.611-1.0511 2.5703-2.3155 3.4062-3.625 0.68875-0.0404 1.4541-0.26677 1.8438-0.6875 1.9413-2.0963 1.4831-5.3715 1-8.1875-1.0569-6.1603-2.4297-12.709-6.25-17.656-1.3623-1.764-4.0438-3.8165-6.25-3.5-1.7578 0.25214-1.4455 2.9232-3.125 3.5-1.5571 0.53479-3.5318-2.1328-4.375-0.71875-3.3508 5.619-10.851-3.4451-11.438-11.781-7.6798-109.22 36.13-111.32 46.812-125.34 0.86823-1.14 1.4668-1.5646 1.625-3.125 1.3624-13.441 2.8976-26.781 4.9688-39.75l-8.5938-21.969s-2.9731 0.23344-3.6562-0.8125c-1.0561-1.6169-1.5-7.4062-1.5-7.4062 3.2359-1.895 7.9962-3.547 11.219-5.6562 3.4183 1.3332 8.1345 2.7408 13.625 5.75 7.0041 3.8387 15.223 10.264 23.344 22.312a0.40323 0.40323 0 0 0 0.65625 -0.46875c-8.1875-12.147-16.492-18.639-23.594-22.531-5.3135-2.9122-9.9476-4.3695-13.281-5.625 1.5821-1.1765 2.6659-2.4869 2.75-4.0625 0.0349-0.65435 0.043-1.2469 0.0312-1.8125 31.892 5.2022 44.479 18.776 51.438 24.969a0.40004 0.40004 0 1 0 0.5313 -0.59375c-6.8933-6.1353-19.799-19.993-52-25.219-0.26372-4.1572-1.7513-5.7935-2.7188-7.0625 15.106 0.35156 34.065 0.79472 53.75 13.469a0.40004 0.40004 0 1 0 0.40625 -0.6875c-20.123-12.956-39.528-13.271-54.719-13.625-0.18063-0.34795-0.29731-0.70544-0.28125-1.125 0.059-1.5408 2.3006-1.412 2.5-4.0938 0.13794-1.855-1.1242-3.7112-1.875-5.5312 8.4618-6.9829 15.433-13.373 16.344-24.219 0.13926-1.6578-4.8184-0.89324-7.25 0.625-5.0046 3.1248-8.4042 4.5949-14.094 7.5 0 0-7.8619 1.3143-11.438 0-1.5398-0.566-2.5896-1.9986-3.6875-3.3438 3.8836-5.7395 9.2223-14.392 17.125-21.344 8.0595-7.0892 18.706-12.375 33.125-10.969a0.40895 0.40895 0 0 0 0.34375 -0.6875 0.40895 0.40895 0 0 0 -0.25 -0.125c-1.8314-0.17859-3.5961-0.24413-5.3125-0.21875-12.015 0.17764-21.285 5.1149-28.438 11.406-7.9356 6.9803-13.269 15.568-17.125 21.281-0.55424-0.63521-1.1671-1.1948-1.8438-1.5938 6.2918-11.626 19.545-39.825 45.406-44a0.40655 0.40655 0 1 0 -0.0312 -0.8125 0.40004 0.40004 0 0 0 -0.0312 0 0.40004 0.40004 0 0 0 -0.0625 0.0312c-26.423 4.2656-39.776 32.931-46 44.438-0.12026-0.0428-0.24859-0.0938-0.375-0.125-3.4349-0.84787-6.8063 2.2485-10.344 2.3125-3.5718 0.0646-6.9905-2.4431-10.531-1.9688-0.191 0.0256-0.37613 0.0844-0.5625 0.125-1.7372-15.052-2.1345-29.974-24.688-50.406a0.40004 0.40004 0 0 0 -0.375 -0.125zm1.375 419.19c0.20684 0.39534 0.10926-0.23914 0 0z"/>
  <path d="m844.22 595.72c-0.32016-0.0159-0.61025-5e-3 -0.84375 0.0312-2.5331 0.39321 1.3061 10.254 6.625 12.312 0.35545 0.13755 0.80706 0.26683 1.3438 0.375-0.22581-1.5741-0.375-3.3423-0.375-5.25 0-2.0186 0.15856-3.8911 0.40625-5.5312-2.8158-1.1001-5.512-1.8557-7.1562-1.9375zm45.938 0.0937c-1.8 0.0895-4.8707 0.97407-7.9688 2.25 0.22297 1.5662 0.34375 3.3241 0.34375 5.2188 0 1.9572-0.1411 3.7706-0.375 5.375 0.88422-0.13118 1.6948-0.29722 2.2188-0.5 5.3189-2.0584 9.1269-11.919 6.5938-12.312-0.2335-0.0362-0.49234-0.0472-0.8125-0.0312zm-38.094 2.125c0.23383 1.596 0.375 3.3995 0.375 5.3438 0 1.9188-0.1183 3.6997-0.34375 5.2812 3.7413 0.57497 9.8541 0.30356 10.219-2.7188 0.30529-2.5303-5.0495-5.7787-10.25-7.9062zm29.312 0.46875c-4.8903 2.1215-9.5998 5.1504-9.3125 7.5312 0.33936 2.8126 5.651 3.2282 9.4062 2.8125-0.25298-1.6457-0.40625-3.5328-0.40625-5.5625 0-1.7203 0.12869-3.3246 0.3125-4.7812z" fill="#f2c134" stroke="#000" stroke-dashoffset="1.5" stroke-linecap="round" stroke-linejoin="round" stroke-width=".8"/>
 </g>
</svg>
